<svg viewBox="0 -46 511.99904 511" xmlns="http://www.w3.org/2000/svg"><path d="m374.070312 133.238281c-2.628906 0-5.210937-1.070312-7.070312-2.929687-.460938-.460938-.878906-.96875-1.25-1.519532-.359375-.539062-.671875-1.121093-.921875-1.730468-.25-.597656-.4375-1.230469-.566406-1.867188-.132813-.640625-.191407-1.300781-.191407-1.953125 0-.648437.058594-1.308593.191407-1.957031.128906-.632812.316406-1.261719.566406-1.871094.25-.601562.5625-1.179687.921875-1.71875.371094-.550781.789062-1.0625 1.25-1.523437.460938-.457031.96875-.878907 1.519531-1.25.539063-.359375 1.121094-.667969 1.71875-.917969.613281-.25 1.242188-.441406 1.871094-.570312 1.289063-.261719 2.621094-.261719 3.910156 0 .640625.128906 1.269531.320312 1.871094.570312.609375.25 1.1875.558594 1.730469.917969.550781.371093 1.058594.792969 1.519531 1.25.460937.460937.878906.972656 1.238281 1.523437.359375.539063.671875 1.117188.921875 1.71875.25.609375.4375 1.238282.570313 1.871094.128906.648438.199218 1.308594.199218 1.957031 0 .652344-.070312 1.3125-.199218 1.953125-.132813.636719-.320313 1.269532-.570313 1.867188-.25.609375-.5625 1.191406-.921875 1.730468-.359375.550782-.777344 1.058594-1.238281 1.519532-1.859375 1.859375-4.441406 2.929687-7.070313 2.929687zm0 0"/><path d="m506.257812 331.460938c-19.894531-9.355469-40.433593-17.667969-61.183593-24.757813 4.082031-14.871094 8.160156-29.738281 12.246093-44.609375 1.417969-5.15625-1.472656-10.511719-6.5625-12.160156-9.183593-2.972656-18.402343-5.734375-27.65625-8.277344v-163.917969c0-3.332031-1.660156-6.449219-4.429687-8.304687-2.765625-1.855469-6.277344-2.210938-9.363281-.945313-9.609375 3.9375-19.769532 5.9375-30.199219 5.9375-24.183594 0-49.996094-41.195312-63.863281-63.328125-1.3125-2.097656-2.5625-4.09375-3.746094-5.957031-1.835938-2.890625-5.019531-4.640625-8.441406-4.640625h-94.117188c-3.421875 0-6.609375 1.75-8.441406 4.640625-1.183594 1.859375-2.433594 3.855469-3.746094 5.953125-13.867187 22.136719-39.679687 63.332031-63.863281 63.332031-10.429687 0-20.589844-2-30.199219-5.9375-3.085937-1.269531-6.597656-.910156-9.367187.945313-2.765625 1.855468-4.429688 4.972656-4.429688 8.304687v163.925781c-9.246093 2.542969-18.460937 5.296876-27.636719 8.269532-5.085937 1.648437-7.980468 7.003906-6.566406 12.160156 4.078125 14.867188 8.160156 29.738281 12.242188 44.605469-20.746094 7.09375-41.289063 15.40625-61.191406 24.761719-3.671876 1.730468-5.933594 5.503906-5.7304692 9.554687.2070312 4.054687 2.8398432 7.582031 6.6679692 8.929687 12.675781 4.460938 25.273437 9.46875 37.570312 14.929688-5.960938 13.226562-11.496094 26.726562-16.507812 40.25-1.410157 3.808594-.375 8.09375 2.613281 10.839844 1.882812 1.730468 4.3125 2.636718 6.765625 2.636718 1.445312 0 2.894531-.3125 4.253906-.949218 32.882812-15.460938 67.355469-27.40625 102.46875-35.503906 5.253906-1.210938 8.601562-6.371094 7.566406-11.664063-1.558594-7.96875-3.117187-15.933594-4.671875-23.902344 2.691407-.574219 5.382813-1.121093 8.078125-1.652343l95.402344 67.605468c1.730469 1.226563 3.757812 1.84375 5.78125 1.84375s4.050781-.617187 5.78125-1.84375l95.40625-67.605468c2.691406.527343 5.382812 1.078124 8.074219 1.648437-1.558594 7.96875-3.113281 15.9375-4.671875 23.90625-1.035156 5.292969 2.3125 10.453125 7.566406 11.664063 35.109375 8.097656 69.585938 20.042968 102.464844 35.503906 1.359375.636718 2.8125.949218 4.253906.949218 2.457031 0 4.882812-.90625 6.769531-2.636718 2.988281-2.746094 4.019531-7.03125 2.609375-10.839844-5.007812-13.523438-10.546875-27.023438-16.503906-40.25 12.292969-5.460938 24.890625-10.46875 37.570312-14.929688 3.828126-1.347656 6.460938-4.875 6.664063-8.929687.207031-4.050781-2.054687-7.824219-5.726563-9.554687zm-397.359374-239.953126c7.808593 1.9375 15.835937 2.917969 23.992187 2.917969 35.253906 0 62.667969-43.757812 80.8125-72.710937.253906-.410156.507813-.8125.761719-1.214844h83.074218c.25.402344.507813.808594.761719 1.214844 18.140625 28.953125 45.558594 72.710937 80.8125 72.710937 8.15625 0 16.179688-.976562 23.992188-2.917969v144.996094c-6.332031-1.523437-12.679688-2.949218-19.035157-4.273437v-74.5c0-5.523438-4.476562-10-10-10-5.523437 0-10 4.476562-10 10v70.667969c-19.316406-3.382813-38.71875-5.851563-58.164062-7.40625l-.402344-4.523438 27.359375-31.984375c2.261719-2.648437 2.988281-6.277344 1.910157-9.589844-1.074219-3.3125-3.792969-5.824219-7.179688-6.636719l-41.027344-9.828124-22.035156-35.929688c-1.816406-2.964844-5.042969-4.773438-8.523438-4.773438-3.476562 0-6.707031 1.808594-8.523437 4.773438l-22.035156 35.929688-41.023438 9.828124c-3.386719.8125-6.105469 3.324219-7.183593 6.636719-1.074219 3.3125-.351563 6.945313 1.914062 9.589844l27.359375 31.984375-.402344 4.523438c-19.453125 1.554687-38.859375 4.027343-58.179687 7.40625v-96.359376c39.128906-7.203124 67.25-41.332031 87.933594-72.550781h40.265624c9.234376 13.972657 21.355469 30.703125 36.410157 44.664063 4.050781 3.753906 10.375 3.515625 14.132812-.53125 3.753907-4.050782 3.515625-10.378906-.535156-14.132813-15.105469-14.011719-27.28125-31.640625-36.203125-45.433593-1.839844-2.847657-5.003906-4.566407-8.394531-4.566407h-51.082031c-3.394532 0-6.554688 1.71875-8.398438 4.566407-19.957031 30.863281-47.636719 66.617187-84.824219 69.207031-5.242187.363281-9.304687 4.722656-9.304687 9.976562v108.996094c-6.359375 1.324219-12.703125 2.75-19.035156 4.273437zm115.550781 115.15625-19.476563-22.761718 29.164063-6.988282c2.582031-.617187 4.808593-2.234374 6.195312-4.496093l15.675781-25.5625 15.675782 25.5625c1.386718 2.257812 3.613281 3.878906 6.195312 4.496093l29.160156 6.988282-19.472656 22.761718c-1.75 2.046876-2.601562 4.710938-2.363281 7.390626l.503906 5.648437c-19.792969-.945313-39.609375-.945313-59.402343 0l.503906-5.648437c.242187-2.679688-.609375-5.34375-2.359375-7.390626zm211.035156 59.421876c-6.664063 24.261718-13.316406 48.527343-19.972656 72.792968-104.578125-31.730468-214.429688-31.730468-319.007813 0-2.585937-9.421875-16.617187-60.542968-19.976562-72.792968 117.628906-36.113282 241.328125-36.113282 358.957031 0zm-167.246094 69.140624-12.238281 8.796876-12.238281-8.796876c8.160156-.191406 16.316406-.191406 24.476562 0zm-138.292969 29.695313c-25.347656 6.339844-50.335937 14.613281-74.617187 24.691406 3.5625-8.566406 7.324219-17.058593 11.25-25.417969 1.128906-2.402343 1.257813-5.152343.355469-7.652343-.902344-2.496094-2.757813-4.53125-5.164063-5.65625-8.359375-3.914063-16.882812-7.632813-25.5-11.125 11.851563-4.984375 23.871094-9.574219 35.96875-13.738281 2.574219 9.382812 5.148438 18.761718 7.71875 28.140624.722657 2.636719 2.492188 4.859376 4.894531 6.15625 2.402344 1.296876 5.230469 1.554688 7.832032.714844 11.453125-3.710937 22.980468-7.023437 34.5625-9.9375.898437 4.609375 1.796875 9.214844 2.699218 13.824219zm126.054688 27.199219-73.230469-51.898438c9.6875-1.363281 19.394531-2.457031 29.117188-3.277344l38.273437 27.515626c1.746094 1.25 3.792969 1.878906 5.839844 1.878906s4.09375-.628906 5.835938-1.878906l38.277343-27.515626c9.722657.820313 19.433594 1.914063 29.121094 3.277344zm194.230469-41.234375c-2.40625 1.125-4.261719 3.160156-5.164063 5.65625-.902344 2.5-.773437 5.25.355469 7.652343 3.925781 8.359376 7.6875 16.851563 11.25 25.417969-24.28125-10.078125-49.265625-18.351562-74.613281-24.691406.898437-4.609375 1.796875-9.21875 2.699218-13.828125 11.585938 2.917969 23.117188 6.230469 34.578126 9.941406 1.003906.324219 2.042968.484375 3.078124.484375 1.644532 0 3.277344-.402343 4.75-1.199219 2.40625-1.296874 4.171876-3.519531 4.894532-6.15625 2.574218-9.378906 5.144531-18.757812 7.71875-28.136718 12.089844 4.164062 24.105468 8.753906 35.953125 13.734375-8.617188 3.492187-17.140625 7.210937-25.5 11.125zm0 0"/><path d="m112.140625 296.1875c.816406 0 1.648437-.101562 2.480469-.3125 46.261718-11.8125 93.832031-17.804688 141.386718-17.804688 47.550782 0 95.117188 5.988282 141.378907 17.804688 5.351562 1.367188 10.796875-1.863281 12.164062-7.214844 1.367188-5.351562-1.863281-10.796875-7.214843-12.164062-47.878907-12.226563-97.109376-18.425782-146.328126-18.425782-49.222656 0-98.457031 6.199219-146.335937 18.425782-5.351563 1.367187-8.582031 6.8125-7.214844 12.164062 1.15625 4.519532 5.222657 7.527344 9.683594 7.527344zm0 0"/></svg>