<svg id="icons" enable-background="new 0 0 64 64" height="512" viewBox="0 0 64 64" width="512" xmlns="http://www.w3.org/2000/svg"><g><g><path d="m4.001 36c-.553 0-1-.447-1-1v-3.867c0-.553.447-1 1-1s1 .447 1 1v3.867c0 .553-.447 1-1 1z"/></g><g><path d="m18.001 36c-.553 0-1-.447-1-1v-4.5c0-.553.447-1 1-1s1 .447 1 1v4.5c0 .553-.447 1-1 1z"/></g><g><path d="m18.001 31.5c-.553 0-1-.447-1-1 0-3.584-2.916-6.5-6.501-6.5-3.584 0-6.499 2.916-6.499 6.5 0 .553-.447 1-1 1s-1-.447-1-1c0-4.687 3.813-8.5 8.499-8.5 4.688 0 8.501 3.813 8.501 8.5 0 .553-.447 1-1 1z"/></g><g><path d="m18.002 32.871c-.301 0-.598-.135-.795-.392-1.931-2.523-2.457-2.313-4.414-1.538-1.878.743-4.716 1.87-9.948 1.042-.545-.086-.918-.597-.831-1.143.086-.545.6-.92 1.144-.831 4.692.742 7.123-.223 8.899-.927 2.408-.954 4.024-1.362 6.738 2.181.336.438.253 1.066-.186 1.402-.181.139-.395.206-.607.206z"/></g><g><path d="m14 30.477c-.147 0-.298-.033-.439-.103-.496-.243-.7-.843-.457-1.338l2-4.072c.243-.496.841-.701 1.338-.457.496.243.7.843.457 1.338l-2 4.072c-.174.354-.53.56-.899.56z"/></g><g><path d="m2.001 47.996c-.553 0-1-.447-1-1 0-2.206 1.794-4 4-4 .553 0 1 .447 1 1s-.447 1-1 1c-1.103 0-2 .897-2 2 0 .553-.447 1-1 1z"/></g><g><path d="m8.001 45.002h-3c-.553 0-1-.447-1-1s.447-1 1-1h3c.553 0 1 .447 1 1s-.447 1-1 1z"/></g><g><path d="m2.001 52c-.553 0-1-.447-1-1v-4.004c0-.553.447-1 1-1s1 .447 1 1v4.004c0 .553-.447 1-1 1z"/></g><g><path d="m20.001 47.996c-.553 0-1-.447-1-1 0-1.103-.897-2-2-2-.553 0-1-.447-1-1s.447-1 1-1c2.206 0 4 1.794 4 4 0 .553-.447 1-1 1z"/></g><g><path d="m17.001 45.002h-3c-.553 0-1-.447-1-1s.447-1 1-1h3c.553 0 1 .447 1 1s-.447 1-1 1z"/></g><g><path d="m20.001 52c-.553 0-1-.447-1-1v-4.004c0-.553.447-1 1-1s1 .447 1 1v4.004c0 .553-.447 1-1 1z"/></g><g><path d="m8.001 45.002c-.553 0-1-.447-1-1v-2.684c0-.553.447-1 1-1s1 .447 1 1v2.684c0 .553-.447 1-1 1z"/></g><g><path d="m14.001 44.996c-.553 0-1-.447-1-1v-2.678c0-.553.447-1 1-1s1 .447 1 1v2.678c0 .553-.447 1-1 1z"/></g><g><path d="m11.001 42.992c-4.411 0-8-3.587-8-7.996 0-.553.447-1 1-1s1 .447 1 1c0 3.307 2.691 5.996 6 5.996s6-2.689 6-5.996c0-.553.447-1 1-1s1 .447 1 1c0 4.409-3.589 7.996-8 7.996z"/></g><g><path d="m45.999 36c-.553 0-1-.447-1-1v-8.004c0-.553.447-1 1-1s1 .447 1 1v8.004c0 .553-.447 1-1 1z"/></g><g><path d="m59.999 36c-.553 0-1-.447-1-1v-.293c0-.553.447-1 1-1s1 .447 1 1v.293c0 .553-.447 1-1 1z"/></g><g><path d="m43.999 47.996c-.553 0-1-.447-1-1 0-2.206 1.794-4 4-4 .553 0 1 .447 1 1s-.447 1-1 1c-1.103 0-2 .897-2 2 0 .553-.447 1-1 1z"/></g><g><path d="m49.999 45.002h-3c-.553 0-1-.447-1-1s.447-1 1-1h3c.553 0 1 .447 1 1s-.447 1-1 1z"/></g><g><path d="m43.999 52c-.553 0-1-.447-1-1v-4.004c0-.553.447-1 1-1s1 .447 1 1v4.004c0 .553-.447 1-1 1z"/></g><g><path d="m61.999 47.996c-.553 0-1-.447-1-1 0-1.103-.897-2-2-2-.553 0-1-.447-1-1s.447-1 1-1c2.206 0 4 1.794 4 4 0 .553-.447 1-1 1z"/></g><g><path d="m58.999 45.002h-3c-.553 0-1-.447-1-1s.447-1 1-1h3c.553 0 1 .447 1 1s-.447 1-1 1z"/></g><g><path d="m61.999 52c-.553 0-1-.447-1-1v-4.004c0-.553.447-1 1-1s1 .447 1 1v4.004c0 .553-.447 1-1 1z"/></g><g><path d="m49.999 45.002c-.553 0-1-.447-1-1v-2.684c0-.553.447-1 1-1s1 .447 1 1v2.684c0 .553-.447 1-1 1z"/></g><g><path d="m55.999 44.996c-.553 0-1-.447-1-1v-2.678c0-.553.447-1 1-1s1 .447 1 1v2.678c0 .553-.447 1-1 1z"/></g><g><path d="m52.999 42.992c-4.411 0-8-3.587-8-7.996 0-.553.447-1 1-1s1 .447 1 1c0 3.307 2.691 5.996 6 5.996s6-2.689 6-5.996c0-.553.447-1 1-1s1 .447 1 1c0 4.409-3.589 7.996-8 7.996z"/></g><g><path d="m20 59c-.553 0-1-.447-1-1 0-3.309 2.691-6 6-6 .553 0 1 .447 1 1s-.447 1-1 1c-2.206 0-4 1.794-4 4 0 .553-.447 1-1 1z"/></g><g><path d="m28 54h-3c-.553 0-1-.447-1-1s.447-1 1-1h3c.553 0 1 .447 1 1s-.447 1-1 1z"/></g><g><path d="m20 63c-.553 0-1-.447-1-1v-4c0-.553.447-1 1-1s1 .447 1 1v4c0 .553-.447 1-1 1z"/></g><g><path d="m44 59c-.553 0-1-.447-1-1 0-2.206-1.794-4-4-4-.553 0-1-.447-1-1s.447-1 1-1c3.309 0 6 2.691 6 6 0 .553-.447 1-1 1z"/></g><g><path d="m39 54h-3c-.553 0-1-.447-1-1s.447-1 1-1h3c.553 0 1 .447 1 1s-.447 1-1 1z"/></g><g><path d="m44 63c-.553 0-1-.447-1-1v-4c0-.553.447-1 1-1s1 .447 1 1v4c0 .553-.447 1-1 1z"/></g><g><path d="m28 54c-.553 0-1-.447-1-1v-3.936c0-.553.447-1 1-1s1 .447 1 1v3.936c0 .553-.447 1-1 1z"/></g><g><path d="m36 54c-.553 0-1-.447-1-1v-3.936c0-.553.447-1 1-1s1 .447 1 1v3.936c0 .553-.447 1-1 1z"/></g><g><path d="m31.999 51c-5.514 0-9.999-4.485-9.999-9.998 0-.553.447-1 1-1s1 .447 1 1c0 4.41 3.588 7.998 7.999 7.998 4.412 0 8.001-3.588 8.001-7.998 0-.553.447-1 1-1s1 .447 1 1c0 5.513-4.486 9.998-10.001 9.998z"/></g><g><path d="m23 42.051c-.553 0-1-.447-1-1v-6.051c0-.553.447-1 1-1s1 .447 1 1v6.051c0 .553-.447 1-1 1z"/></g><g><path d="m41 42.002c-.553 0-1-.447-1-1v-6.002c0-.553.447-1 1-1s1 .447 1 1v6.002c0 .553-.447 1-1 1z"/></g><g><path d="m41 36c-.553 0-1-.447-1-1 0-1.654-1.346-3-3-3-.553 0-1-.447-1-1s.447-1 1-1c2.757 0 5 2.243 5 5 0 .553-.447 1-1 1z"/></g><g><path d="m37 32c-.553 0-1-.447-1-1v-4c0-.553.447-1 1-1s1 .447 1 1v4c0 .553-.447 1-1 1z"/></g><g><path d="m37 28.014h-6c-.553 0-1-.447-1-1s.447-1 1-1h6c.553 0 1 .447 1 1s-.447 1-1 1z"/></g><g><path d="m23 36c-.553 0-1-.447-1-1 0-4.963 4.037-9 9-9 .553 0 1 .447 1 1s-.447 1-1 1c-3.859 0-7 3.141-7 7 0 .553-.447 1-1 1z"/></g><g><g><path d="m40.999 39.025c-.192 0-.387-.056-.559-.171l-3-2.025c-.458-.31-.578-.931-.27-1.389.31-.458.929-.576 1.389-.27l3 2.025c.458.31.578.931.27 1.389-.193.287-.509.441-.83.441z"/></g><g><path d="m32.5 38c-3.612 0-6.687-1.008-6.815-1.051-.523-.175-.807-.74-.634-1.264.174-.523.739-.807 1.264-.635.029.011 2.908.95 6.185.95 3.178 0 5.04-.888 5.059-.897.493-.24 1.094-.037 1.337.457s.043 1.09-.449 1.336c-.092.044-2.261 1.104-5.947 1.104z"/></g><g><path d="m23.001 39.025c-.321 0-.637-.154-.83-.44-.309-.458-.188-1.079.27-1.389l3-2.025c.459-.307 1.079-.188 1.389.27.309.458.188 1.079-.27 1.389l-3 2.025c-.172.115-.367.17-.559.17z"/></g></g><g><path d="m61.999 30.996c-.553 0-1-.447-1-1 0-3.859-3.141-7-7-7-1.782 0-3.362.968-4.374 1.78-.432.346-1.06.276-1.406-.154-.346-.431-.276-1.061.154-1.406 1.81-1.452 3.755-2.22 5.626-2.22 4.963 0 9 4.037 9 9 0 .553-.447 1-1 1z"/></g><g><path d="m61.999 40.996c-.553 0-1-.447-1-1 0-3.859-3.141-7-7-7-.553 0-1-.447-1-1s.447-1 1-1c4.963 0 9 4.037 9 9 0 .553-.447 1-1 1z"/></g><g><path d="m45.999 32.996c-.553 0-1-.447-1-1s.447-1 1-1c1.103 0 2-.897 2-2 0-.553.447-1 1-1s1 .447 1 1c0 2.206-1.794 4-4 4z"/></g><g><path d="m45.999 28.01c-.553 0-1-.447-1-1 0-2.206 1.794-4 4-4 .553 0 1 .447 1 1s-.447 1-1 1c-1.103 0-2 .897-2 2 0 .553-.447 1-1 1z"/></g><g><path d="m51.999 32.996c-2.206 0-4-1.794-4-4 0-.553.447-1 1-1s1 .447 1 1c0 1.103.897 2 2 2 .553 0 1 .447 1 1s-.447 1-1 1z"/></g><g><path d="m48.999 29.996c-.553 0-1-.447-1-1v-5c0-.553.447-1 1-1s1 .447 1 1v5c0 .553-.447 1-1 1z"/></g><g><path d="m61.999 40.996c-.553 0-1-.447-1-1v-10c0-.553.447-1 1-1s1 .447 1 1v10c0 .553-.447 1-1 1z"/></g><g><path d="m53.999 32.996h-2c-.553 0-1-.447-1-1s.447-1 1-1h2c.553 0 1 .447 1 1s-.447 1-1 1z"/></g><g><path d="m3.001 31.996c-.553 0-1-.447-1-1v-.496c0-.553.447-1 1-1s1 .447 1 1v.496c0 .553-.447 1-1 1z"/></g><g><path d="m29.999 54.994c-.149 0-.301-.033-.444-.104l-2-.994c-.494-.246-.696-.846-.45-1.341.245-.494.843-.698 1.341-.45l2 .994c.494.246.696.846.45 1.341-.175.351-.529.554-.897.554z"/></g><g><path d="m30.001 54.994c-.367 0-.721-.203-.896-.554-.247-.494-.046-1.095.448-1.341l2-.998c.497-.249 1.095-.045 1.341.448.247.494.046 1.095-.448 1.341l-2 .998c-.143.073-.296.106-.445.106z"/></g><g><path d="m34.001 54.994c-.368 0-.722-.203-.896-.555-.246-.495-.044-1.095.45-1.341l2-.994c.498-.248 1.096-.044 1.341.45.246.495.044 1.095-.45 1.341l-2 .994c-.144.072-.296.105-.445.105z"/></g><g><path d="m33.999 54.994c-.149 0-.302-.033-.445-.105l-2-.998c-.494-.246-.695-.847-.448-1.341.246-.493.846-.697 1.341-.448l2 .998c.494.246.695.847.448 1.341-.175.35-.529.553-.896.553z"/></g><g><path d="m53 46.994c-.189 0-.382-.054-.552-.167l-3.002-1.992c-.46-.305-.586-.926-.28-1.386.305-.46.924-.589 1.386-.28l3.002 1.992c.46.305.586.926.28 1.386-.192.29-.51.447-.834.447z"/></g><g><path d="m52.998 46.994c-.324 0-.642-.157-.834-.447-.306-.46-.18-1.081.28-1.386l3.002-1.992c.46-.309 1.081-.18 1.386.28.306.46.18 1.081-.28 1.386l-3.002 1.992c-.17.113-.362.167-.552.167z"/></g><g><path d="m11 46.998c-2.242 0-3.999-1.317-3.999-3 0-.553.447-1 1-1s1 .447 1 1c0 .408.778 1 1.999 1s2-.592 2-1c0-.553.447-1 1-1s1 .447 1 1c0 1.683-1.757 3-4 3z"/></g><g><g><g><path d="m37.499 9.986h-10.998c-.553 0-1-.447-1-1v-1.998c0-.421.264-.797.66-.94l5.499-1.988c.219-.08.461-.08.68 0l5.499 1.988c.396.144.66.52.66.94v1.998c0 .553-.447 1-1 1zm-9.998-2h8.998v-.296l-4.499-1.627-4.499 1.627z"/></g><g><path d="m37.498 17.986h-10.997c-.553 0-1-.447-1-1v-3c0-.553.447-1 1-1h10.997c.553 0 1 .447 1 1v3c0 .553-.447 1-1 1zm-9.997-2h8.997v-1h-8.997z"/></g><g><path d="m27.496 14.986c-.553 0-1-.447-1-1v-5c0-.553.447-1 1-1s1 .447 1 1v5c0 .553-.447 1-1 1z"/></g><g><path d="m33.499 14.986c-.553 0-1-.447-1-1v-5c0-.553.447-1 1-1s1 .447 1 1v5c0 .553-.447 1-1 1z"/></g><g><path d="m30.498 14.986c-.553 0-1-.447-1-1v-5c0-.553.447-1 1-1s1 .447 1 1v5c0 .553-.447 1-1 1z"/></g><g><path d="m36.499 14.986c-.553 0-1-.447-1-1v-5c0-.553.447-1 1-1s1 .447 1 1v5c0 .553-.447 1-1 1z"/></g></g><g><g><path d="m48 3h-32c-.553 0-1-.447-1-1s.447-1 1-1h32c.553 0 1 .447 1 1s-.447 1-1 1z"/></g><g><path d="m48 21h-32c-.553 0-1-.447-1-1s.447-1 1-1h32c.553 0 1 .447 1 1s-.447 1-1 1z"/></g><g><path d="m48 16c-2.757 0-5-2.243-5-5s2.243-5 5-5c.553 0 1 .447 1 1s-.447 1-1 1c-1.654 0-3 1.346-3 3s1.346 3 3 3c.553 0 1 .447 1 1s-.447 1-1 1z"/></g><g><path d="m48 21c-.553 0-1-.447-1-1v-5c0-.553.447-1 1-1s1 .447 1 1v5c0 .553-.447 1-1 1z"/></g><g><path d="m48 8c-.553 0-1-.447-1-1v-5c0-.553.447-1 1-1s1 .447 1 1v5c0 .553-.447 1-1 1z"/></g><g><path d="m16.002 16c-.553 0-1-.447-1-1s.447-1 1-1c1.654 0 3-1.346 3-3s-1.346-3-3-3c-.553 0-1-.447-1-1s.447-1 1-1c2.757 0 5 2.243 5 5s-2.243 5-5 5z"/></g><g><path d="m16.002 21c-.553 0-1-.447-1-1v-5c0-.553.447-1 1-1s1 .447 1 1v5c0 .553-.447 1-1 1z"/></g><g><path d="m16.002 8c-.553 0-1-.447-1-1v-5c0-.553.447-1 1-1s1 .447 1 1v5c0 .553-.447 1-1 1z"/></g></g></g></g></svg>